<svg width="213" height="662" viewBox="0 0 213 662" fill="none" xmlns="http://www.w3.org/2000/svg">
<rect x="97" width="20" height="662" fill="#67321D"/>
<path d="M30 302.091C25.5 307.764 6.6 307.764 1 302.091" stroke="black" stroke-width="0.7"/>
<path d="M30 306.346C25.5 312.019 6.6 312.019 1 306.346" stroke="black" stroke-width="0.7"/>
<path d="M40 302.091C41.5 304.927 47.5 304.927 49 302.091" stroke="black" stroke-width="0.7"/>
<rect x="32.5" y="296.418" width="5" height="15.6006" fill="#43291F"/>
<rect x="29.5" y="300.673" width="11" height="2.83647" fill="#A79F9F"/>
<rect x="29.5" y="304.927" width="11" height="2.83647" fill="#A79F9F"/>
<rect x="51.5" y="296.418" width="5" height="15.6006" fill="#43291F"/>
<rect x="48.5" y="300.673" width="11" height="2.83647" fill="#A79F9F"/>
<rect x="48.5" y="304.927" width="11" height="2.83647" fill="#A79F9F"/>
<path d="M183 302.091C187.5 307.764 206.4 307.764 212 302.091" stroke="black" stroke-width="0.7"/>
<path d="M183 306.346C187.5 312.019 206.4 312.019 212 306.346" stroke="black" stroke-width="0.7"/>
<path d="M173 302.091C171.5 304.927 165.5 304.927 164 302.091" stroke="black" stroke-width="0.7"/>
<rect width="5" height="15.6006" transform="matrix(-1 0 0 1 180.5 296.418)" fill="#43291F"/>
<rect width="11" height="2.83647" transform="matrix(-1 0 0 1 183.5 300.673)" fill="#A79F9F"/>
<rect width="11" height="2.83647" transform="matrix(-1 0 0 1 183.5 304.927)" fill="#A79F9F"/>
<rect width="5" height="15.6006" transform="matrix(-1 0 0 1 161.5 296.418)" fill="#43291F"/>
<rect width="11" height="2.83647" transform="matrix(-1 0 0 1 164.5 300.673)" fill="#A79F9F"/>
<rect width="11" height="2.83647" transform="matrix(-1 0 0 1 164.5 304.927)" fill="#A79F9F"/>
<path d="M183 346.056C187.5 351.729 206.4 351.729 212 346.056" stroke="black" stroke-width="0.7"/>
<path d="M183 350.311C187.5 355.984 206.4 355.984 212 350.311" stroke="black" stroke-width="0.7"/>
<path d="M173 346.056C171.5 348.893 165.5 348.893 164 346.056" stroke="black" stroke-width="0.7"/>
<rect width="5" height="15.6006" transform="matrix(-1 0 0 1 180.5 340.383)" fill="#43291F"/>
<rect width="11" height="2.83647" transform="matrix(-1 0 0 1 183.5 344.638)" fill="#A79F9F"/>
<rect width="11" height="2.83647" transform="matrix(-1 0 0 1 183.5 348.893)" fill="#A79F9F"/>
<rect width="5" height="15.6006" transform="matrix(-1 0 0 1 161.5 340.383)" fill="#43291F"/>
<rect width="11" height="2.83647" transform="matrix(-1 0 0 1 164.5 344.638)" fill="#A79F9F"/>
<rect width="11" height="2.83647" transform="matrix(-1 0 0 1 164.5 348.893)" fill="#A79F9F"/>
<path d="M30 344.638C25.5 350.311 6.6 350.311 1 344.638" stroke="black" stroke-width="0.7"/>
<path d="M30 348.893C25.5 354.566 6.6 354.566 1 348.893" stroke="black" stroke-width="0.7"/>
<path d="M40 344.638C41.5 347.474 47.5 347.474 49 344.638" stroke="black" stroke-width="0.7"/>
<rect x="32.5" y="338.965" width="5" height="15.6006" fill="#43291F"/>
<rect x="29.5" y="343.22" width="11" height="2.83647" fill="#A79F9F"/>
<rect x="29.5" y="347.474" width="11" height="2.83647" fill="#A79F9F"/>
<rect x="51.5" y="338.965" width="5" height="15.6006" fill="#43291F"/>
<rect x="48.5" y="343.22" width="11" height="2.83647" fill="#A79F9F"/>
<rect x="48.5" y="347.474" width="11" height="2.83647" fill="#A79F9F"/>
<rect x="21.5" y="312.019" width="170" height="12.7641" fill="#43291F"/>
<rect x="21.5" y="354.566" width="170" height="12.7641" fill="#43291F"/>
</svg>
